<svg width="6021" height="1028" viewBox="0 0 6021 1028" fill="none" xmlns="http://www.w3.org/2000/svg">
<path d="M1545.54 342.727C1542.7 318.761 1531.19 300.156 1511.01 286.912C1490.83 273.668 1466.07 267.045 1436.75 267.045C1415.3 267.045 1396.54 270.514 1380.46 277.452C1364.53 284.389 1352.08 293.928 1343.09 306.069C1334.26 318.209 1329.85 332.006 1329.85 347.457C1329.85 360.386 1332.92 371.502 1339.07 380.805C1345.38 389.95 1353.42 397.597 1363.19 403.746C1372.97 409.737 1383.22 414.704 1393.94 418.646C1404.66 422.43 1414.52 425.504 1423.5 427.869L1472.7 441.114C1485.31 444.425 1499.34 448.997 1514.79 454.831C1530.4 460.665 1545.3 468.627 1559.49 478.718C1573.84 488.651 1585.67 501.423 1594.97 517.032C1604.27 532.641 1608.92 551.798 1608.92 574.503C1608.92 600.676 1602.06 624.327 1588.35 645.455C1574.79 666.582 1554.92 683.374 1528.75 695.83C1502.73 708.286 1471.12 714.514 1433.91 714.514C1399.22 714.514 1369.19 708.917 1343.8 697.722C1318.57 686.528 1298.71 670.918 1284.2 650.894C1269.85 630.87 1261.73 607.614 1259.84 581.125H1320.39C1321.96 599.415 1328.11 614.551 1338.83 626.534C1349.71 638.359 1363.43 647.189 1379.99 653.023C1396.7 658.699 1414.67 661.537 1433.91 661.537C1456.3 661.537 1476.4 657.911 1494.22 650.658C1512.03 643.247 1526.15 632.999 1536.55 619.912C1546.96 606.668 1552.16 591.216 1552.16 573.557C1552.16 557.474 1547.67 544.388 1538.68 534.297C1529.69 524.206 1517.87 516.007 1503.21 509.7C1488.54 503.393 1472.7 497.875 1455.67 493.145L1396.07 476.116C1358.23 465.237 1328.27 449.707 1306.2 429.525C1284.12 409.343 1273.09 382.933 1273.09 350.295C1273.09 323.176 1280.42 299.526 1295.08 279.344C1309.9 259.004 1329.77 243.237 1354.68 232.043C1379.75 220.69 1407.74 215.014 1438.64 215.014C1469.86 215.014 1497.61 220.611 1521.89 231.806C1546.17 242.843 1565.41 257.979 1579.6 277.215C1593.94 296.451 1601.51 318.288 1602.3 342.727H1545.54ZM1780.09 706L1669.41 342.727H1728.06L1806.58 620.858H1810.37L1887.94 342.727H1947.54L2024.17 619.912H2027.95L2106.47 342.727H2165.13L2054.44 706H1999.57L1920.11 426.923H1914.43L1834.96 706H1780.09ZM2238.92 706V342.727H2294.73V706H2238.92ZM2267.3 282.182C2256.42 282.182 2247.04 278.477 2239.15 271.066C2231.43 263.656 2227.56 254.747 2227.56 244.341C2227.56 233.935 2231.43 225.026 2239.15 217.616C2247.04 210.205 2256.42 206.5 2267.3 206.5C2278.18 206.5 2287.48 210.205 2295.2 217.616C2303.09 225.026 2307.03 233.935 2307.03 244.341C2307.03 254.747 2303.09 263.656 2295.2 271.066C2287.48 278.477 2278.18 282.182 2267.3 282.182ZM2654.28 424.085L2604.14 438.276C2600.99 429.919 2596.33 421.799 2590.19 413.915C2584.19 405.874 2576 399.252 2565.59 394.049C2555.18 388.846 2541.86 386.244 2525.62 386.244C2503.39 386.244 2484.86 391.369 2470.04 401.617C2455.38 411.708 2448.05 424.558 2448.05 440.168C2448.05 454.043 2453.09 465.001 2463.18 473.042C2473.27 481.083 2489.04 487.784 2510.48 493.145L2564.41 506.389C2596.89 514.273 2621.09 526.335 2637.01 542.575C2652.94 558.657 2660.9 579.391 2660.9 604.776C2660.9 625.588 2654.91 644.193 2642.93 660.591C2631.1 676.989 2614.55 689.918 2593.26 699.378C2571.97 708.838 2547.22 713.568 2519 713.568C2481.94 713.568 2451.28 705.527 2427 689.445C2402.72 673.362 2387.34 649.869 2380.88 618.966L2433.86 605.722C2438.9 625.273 2448.44 639.936 2462.47 649.712C2476.66 659.487 2495.19 664.375 2518.05 664.375C2544.07 664.375 2564.72 658.857 2580.02 647.82C2595.47 636.625 2603.19 623.223 2603.19 607.614C2603.19 595 2598.78 584.436 2589.95 575.922C2581.12 567.25 2567.56 560.786 2549.27 556.528L2488.72 542.338C2455.46 534.455 2431.02 522.235 2415.41 505.68C2399.96 488.967 2392.23 468.075 2392.23 443.006C2392.23 422.509 2397.99 404.376 2409.5 388.609C2421.16 372.842 2437.01 360.465 2457.03 351.478C2477.21 342.491 2500.08 337.997 2525.62 337.997C2561.57 337.997 2589.79 345.881 2610.29 361.648C2630.94 377.415 2645.61 398.227 2654.28 424.085ZM2800.73 487.469V706H2744.92V221.636H2800.73V399.489H2805.46C2813.98 380.726 2826.75 365.826 2843.78 354.789C2860.96 343.594 2883.83 337.997 2912.37 337.997C2937.12 337.997 2958.8 342.964 2977.4 352.897C2996.01 362.673 3010.44 377.73 3020.68 398.07C3031.09 418.251 3036.29 443.952 3036.29 475.17V706H2980.48V478.955C2980.48 450.101 2972.99 427.79 2958.01 412.023C2943.19 396.099 2922.61 388.136 2896.28 388.136C2877.99 388.136 2861.6 391.999 2847.09 399.725C2832.74 407.451 2821.39 418.724 2813.03 433.545C2804.83 448.366 2800.73 466.341 2800.73 487.469ZM2946.19 910.873C2958.76 910.873 2970.25 914.125 2980.66 920.629C2991.06 927.133 3002.12 934.07 3013.83 941.441C3025.1 949.246 3037.46 956.4 3050.9 962.904C3064.34 969.408 3079.95 972.66 3097.73 972.66C3115.5 972.66 3132.85 970.275 3149.76 965.506C3166.67 961.17 3181.84 954.232 3195.29 944.693C3208.73 935.588 3219.57 923.447 3227.8 908.271C3236.04 893.529 3240.16 875.969 3240.16 855.59C3240.16 821.77 3237.34 786.648 3231.71 750.227C3226.5 713.805 3219.57 677.6 3210.89 641.611C3202.66 605.189 3193.55 569.852 3183.58 535.598C3174.04 501.344 3165.15 469.691 3156.91 440.641C3156.91 440.207 3156.7 439.123 3156.26 437.389C3155.83 435.654 3155.61 434.57 3155.61 434.137C3155.61 425.465 3158.65 419.611 3164.72 416.576C3170.79 413.107 3177.29 411.373 3184.23 411.373C3185.96 411.373 3188.56 411.59 3192.03 412.023C3195.5 412.457 3197.67 412.674 3198.54 412.674C3211.98 446.494 3224.55 481.182 3236.26 516.736C3248.4 551.857 3259.02 587.629 3268.13 624.051C3277.23 660.473 3284.39 696.895 3289.59 733.316C3294.79 770.172 3297.4 806.594 3297.4 842.582C3297.4 870.766 3292.41 896.348 3282.44 919.328C3272.9 942.309 3259.46 961.82 3242.11 977.863C3224.77 993.906 3203.96 1006.26 3179.68 1014.94C3155.83 1023.61 3129.81 1027.94 3101.63 1027.94C3082.98 1027.94 3064.56 1025.78 3046.35 1021.44C3027.7 1017.54 3011.01 1011.03 2996.27 1001.93C2981.09 992.822 2968.95 980.682 2959.84 965.506C2950.74 950.764 2946.19 932.553 2946.19 910.873ZM3099.03 252.678C3099.03 251.377 3099.03 248.775 3099.03 244.873C3099.03 240.971 3099.46 237.068 3100.33 233.166C3101.2 228.83 3102.71 225.145 3104.88 222.109C3107.05 219.074 3110.3 217.557 3114.64 217.557C3122.01 217.557 3127.64 218.641 3131.55 220.809C3135.45 222.543 3138.27 224.928 3140 227.963C3141.74 230.564 3142.82 234.033 3143.25 238.369C3143.69 242.271 3143.9 246.824 3143.9 252.027C3143.9 255.496 3143.69 259.398 3143.25 263.734C3142.82 268.07 3141.95 272.189 3140.65 276.092C3139.35 279.994 3137.18 283.246 3134.15 285.848C3131.11 288.016 3126.99 289.1 3121.79 289.1C3116.59 289.1 3112.47 288.016 3109.43 285.848C3106.4 283.246 3104.01 280.211 3102.28 276.742C3100.98 273.273 3100.11 269.371 3099.68 265.035C3099.24 260.699 3099.03 256.58 3099.03 252.678ZM3441.07 714.514C3418.05 714.514 3397.16 710.178 3378.4 701.506C3359.64 692.677 3344.74 679.984 3333.7 663.429C3322.66 646.716 3317.14 626.534 3317.14 602.884C3317.14 582.071 3321.24 565.2 3329.44 552.271C3337.64 539.185 3348.6 528.936 3362.32 521.526C3376.03 514.115 3391.17 508.597 3407.73 504.97C3424.44 501.186 3441.23 498.19 3458.1 495.983C3480.18 493.145 3498.07 491.016 3511.79 489.597C3525.66 488.021 3535.75 485.419 3542.06 481.793C3548.53 478.166 3551.76 471.859 3551.76 462.872V460.98C3551.76 437.645 3545.37 419.513 3532.6 406.584C3519.99 393.655 3500.83 387.19 3475.13 387.19C3448.48 387.19 3427.59 393.024 3412.46 404.692C3397.32 416.359 3386.68 428.815 3380.53 442.06L3327.55 423.139C3337.01 401.065 3349.62 383.879 3365.39 371.581C3381.32 359.125 3398.66 350.453 3417.42 345.565C3436.34 340.52 3454.95 337.997 3473.24 337.997C3484.91 337.997 3498.31 339.416 3513.44 342.254C3528.74 344.935 3543.48 350.532 3557.67 359.046C3572.02 367.56 3583.92 380.411 3593.38 397.597C3602.84 414.783 3607.57 437.803 3607.57 466.656V706H3551.76V656.807H3548.92C3545.14 664.69 3538.83 673.126 3530 682.113C3521.17 691.1 3509.42 698.747 3494.76 705.054C3480.1 711.361 3462.2 714.514 3441.07 714.514ZM3449.59 664.375C3471.66 664.375 3490.27 660.039 3505.4 651.367C3520.7 642.695 3532.21 631.501 3539.93 617.783C3547.82 604.066 3551.76 589.639 3551.76 574.503V523.418C3549.39 526.256 3544.19 528.857 3536.15 531.222C3528.27 533.43 3519.12 535.401 3508.71 537.135C3498.47 538.712 3488.45 540.131 3478.68 541.392C3469.06 542.496 3461.26 543.442 3455.26 544.23C3440.76 546.122 3427.2 549.197 3414.59 553.454C3402.13 557.553 3392.04 563.781 3384.31 572.138C3376.74 580.337 3372.96 591.531 3372.96 605.722C3372.96 625.115 3380.13 639.778 3394.48 649.712C3408.99 659.487 3427.36 664.375 3449.59 664.375ZM3709.45 706V342.727H3763.37V399.489H3768.1C3775.67 380.095 3787.89 365.038 3804.76 354.316C3821.63 343.437 3841.89 337.997 3865.54 337.997C3889.51 337.997 3909.45 343.437 3925.38 354.316C3941.46 365.038 3954 380.095 3962.98 399.489H3966.77C3976.07 380.726 3990.02 365.826 4008.63 354.789C4027.23 343.594 4049.54 337.997 4075.56 337.997C4108.04 337.997 4134.61 348.167 4155.26 368.506C4175.92 388.688 4186.24 420.143 4186.24 462.872V706H4130.43V462.872C4130.43 436.068 4123.1 416.911 4108.43 405.401C4093.77 393.891 4076.51 388.136 4056.64 388.136C4031.1 388.136 4011.31 395.862 3997.28 411.314C3983.24 426.608 3976.23 446.001 3976.23 469.494V706H3919.47V457.196C3919.47 436.541 3912.76 419.907 3899.36 407.293C3885.96 394.522 3868.7 388.136 3847.57 388.136C3833.06 388.136 3819.5 391.999 3806.89 399.725C3794.43 407.451 3784.34 418.173 3776.62 431.89C3769.05 445.45 3765.26 461.138 3765.26 478.955V706H3709.45ZM4632.65 706H4483.18V221.636H4639.27C4686.26 221.636 4726.46 231.333 4759.89 250.727C4793.31 269.962 4818.94 297.633 4836.75 333.74C4854.57 369.689 4863.48 412.733 4863.48 462.872C4863.48 513.327 4854.49 556.765 4836.52 593.187C4818.54 629.451 4792.37 657.359 4758 676.91C4723.62 696.303 4681.84 706 4632.65 706ZM4541.83 653.969H4628.86C4668.91 653.969 4702.1 646.243 4728.43 630.791C4754.76 615.339 4774.39 593.344 4787.32 564.806C4800.25 536.268 4806.72 502.29 4806.72 462.872C4806.72 423.77 4800.33 390.107 4787.56 361.884C4774.79 333.504 4755.71 311.745 4730.33 296.609C4704.94 281.315 4673.33 273.668 4635.49 273.668H4541.83V653.969ZM5101.88 713.568C5069.08 713.568 5040.31 705.763 5015.55 690.154C4990.95 674.545 4971.72 652.707 4957.84 624.642C4944.13 596.577 4937.27 563.781 4937.27 526.256C4937.27 488.415 4944.13 455.383 4957.84 427.16C4971.72 398.937 4990.95 377.021 5015.55 361.411C5040.31 345.802 5069.08 337.997 5101.88 337.997C5134.67 337.997 5163.37 345.802 5187.96 361.411C5212.72 377.021 5231.95 398.937 5245.67 427.16C5259.55 455.383 5266.48 488.415 5266.48 526.256C5266.48 563.781 5259.55 596.577 5245.67 624.642C5231.95 652.707 5212.72 674.545 5187.96 690.154C5163.37 705.763 5134.67 713.568 5101.88 713.568ZM5101.88 663.429C5126.79 663.429 5147.28 657.043 5163.37 644.272C5179.45 631.501 5191.35 614.709 5199.08 593.896C5206.81 573.084 5210.67 550.537 5210.67 526.256C5210.67 501.974 5206.81 479.349 5199.08 458.379C5191.35 437.408 5179.45 420.459 5163.37 407.53C5147.28 394.601 5126.79 388.136 5101.88 388.136C5076.96 388.136 5056.47 394.601 5040.38 407.53C5024.3 420.459 5012.4 437.408 5004.67 458.379C4996.95 479.349 4993.08 501.974 4993.08 526.256C4993.08 550.537 4996.95 573.084 5004.67 593.896C5012.4 614.709 5024.3 631.501 5040.38 644.272C5056.47 657.043 5076.96 663.429 5101.88 663.429ZM5499.26 713.568C5465.21 713.568 5435.88 705.527 5411.28 689.445C5386.69 673.362 5367.77 651.21 5354.52 622.987C5341.28 594.763 5334.66 562.52 5334.66 526.256C5334.66 489.361 5341.44 456.802 5355 428.579C5368.71 400.198 5387.79 378.045 5412.23 362.121C5436.83 346.038 5465.52 337.997 5498.32 337.997C5523.86 337.997 5546.88 342.727 5567.38 352.188C5587.88 361.648 5604.67 374.892 5617.75 391.92C5630.84 408.949 5638.96 428.815 5642.11 451.52H5586.3C5582.04 434.964 5572.58 420.301 5557.92 407.53C5543.41 394.601 5523.86 388.136 5499.26 388.136C5477.51 388.136 5458.43 393.812 5442.03 405.165C5425.79 416.359 5413.1 432.205 5403.95 452.702C5394.97 473.042 5390.47 496.929 5390.47 524.364C5390.47 552.429 5394.89 576.868 5403.72 597.68C5412.7 618.493 5425.32 634.654 5441.56 646.164C5457.95 657.674 5477.19 663.429 5499.26 663.429C5513.77 663.429 5526.94 660.906 5538.76 655.861C5550.59 650.815 5560.6 643.562 5568.8 634.102C5577 624.642 5582.83 613.29 5586.3 600.045H5642.11C5638.96 621.489 5631.16 640.803 5618.7 657.989C5606.4 675.018 5590.08 688.577 5569.74 698.668C5549.56 708.602 5526.07 713.568 5499.26 713.568ZM5981.03 424.085L5930.89 438.276C5927.73 429.919 5923.08 421.799 5916.93 413.915C5910.94 405.874 5902.74 399.252 5892.34 394.049C5881.93 388.846 5868.61 386.244 5852.37 386.244C5830.14 386.244 5811.61 391.369 5796.79 401.617C5782.13 411.708 5774.79 424.558 5774.79 440.168C5774.79 454.043 5779.84 465.001 5789.93 473.042C5800.02 481.083 5815.79 487.784 5837.23 493.145L5891.15 506.389C5923.63 514.273 5947.84 526.335 5963.76 542.575C5979.69 558.657 5987.65 579.391 5987.65 604.776C5987.65 625.588 5981.66 644.193 5969.67 660.591C5957.85 676.989 5941.29 689.918 5920.01 699.378C5898.72 708.838 5873.97 713.568 5845.75 713.568C5808.69 713.568 5778.03 705.527 5753.74 689.445C5729.46 673.362 5714.09 649.869 5707.63 618.966L5760.6 605.722C5765.65 625.273 5775.19 639.936 5789.22 649.712C5803.41 659.487 5821.94 664.375 5844.8 664.375C5870.81 664.375 5891.47 658.857 5906.76 647.82C5922.22 636.625 5929.94 623.223 5929.94 607.614C5929.94 595 5925.53 584.436 5916.7 575.922C5907.87 567.25 5894.31 560.786 5876.02 556.528L5815.47 542.338C5782.2 534.455 5757.77 522.235 5742.16 505.68C5726.7 488.967 5718.98 468.075 5718.98 443.006C5718.98 422.509 5724.73 404.376 5736.24 388.609C5747.91 372.842 5763.76 360.465 5783.78 351.478C5803.96 342.491 5826.82 337.997 5852.37 337.997C5888.32 337.997 5916.54 345.881 5937.04 361.648C5957.69 377.415 5972.35 398.227 5981.03 424.085Z" fill="white"/>
<path d="M467.592 468.276V717.573L218.614 591.566L29.584 495.82V246.617L275.034 370.844L467.592 468.276Z" fill="#DDDAFD" stroke="#231F20" stroke-width="40" stroke-linecap="round" stroke-linejoin="round"/>
<path d="M906.97 495.817L714.092 593.156L467.572 717.57V468.274L658.847 371.497L906.97 495.817Z" stroke="#231F20" stroke-width="3" stroke-linecap="round" stroke-linejoin="round"/>
<path d="M906.951 688.342L466.166 910L28.0508 688.342L218.578 591.565L461.249 468.274L467.555 471.366L714.073 593.158L906.951 688.342Z" stroke="#231F20" stroke-width="3" stroke-linecap="round" stroke-linejoin="round"/>
<path d="M467.555 717.572L466.166 910.002L28.0508 688.343L218.578 591.566L467.555 717.572Z" fill="#7384FF" stroke="#231F20" stroke-width="40" stroke-linecap="round" stroke-linejoin="round"/>
<path d="M906.931 495.818V688.341L466.039 910.094L467.535 717.57L906.931 495.818Z" fill="#7384FF" stroke="#231F20" stroke-width="40" stroke-linecap="round" stroke-linejoin="round"/>
<path d="M906.987 495.815L714.11 593.154L467.592 717.568L218.614 591.561L29.584 495.815L275.034 370.839V370.746L467.592 471.785L658.225 371.121L658.866 371.495L906.987 495.815Z" fill="#DDDAFD" stroke="#231F20" stroke-width="40" stroke-linecap="round" stroke-linejoin="round"/>
<g style="mix-blend-mode:multiply">
<g style="mix-blend-mode:overlay">
<path d="M902.714 246.615L467.592 468.274L29.584 246.615L464.706 24.8623L902.714 246.615Z" fill="#7384FF"/>
</g>
<path d="M902.714 246.615L467.592 468.274L29.584 246.615L464.706 24.8623L902.714 246.615Z" stroke="#231F20" stroke-width="40" stroke-linecap="round" stroke-linejoin="round"/>
</g>
</svg>
